# xmcd
#
# Track frame offsets: 
#        182
#        16760
#        33237
#        46135
#        59982
#        77030
#        87177
#        106510
#        121490
#        135022
#        149285
#        164662
#        183315
#        195497
#        206997
#        224672
#
# Disc length: 3131 seconds
#
# Revision: 15
# Processed by: cddbd v1.5.2PL0 Copyright (c) Steve Scherf et al.
# Submitted via: ExactAudioCopyFreeDBPlugin 1.0
#
DISCID=de0c3910
DTITLE=Righteous Brothers, The - Righteous Brothers - All The Hits
DYEAR=1994
DGENRE=Pop
TTITLE0=You've lost that lovin' feeling
TTITLE1=Unchained melody
TTITLE2=Ebb tide
TTITLE3=(You're my) soul and inspiration
TTITLE4=Just once in my life
TTITLE5=In the midnight hour
TTITLE6=Drown in my own tears
TTITLE7=Hung on you
TTITLE8=He
TTITLE9=Harlem shuffle
TTITLE10=I just want to make love to you
TTITLE11=What'd I say
TTITLE12=Georgia on my mind
TTITLE13=Go ahead and cry
TTITLE14=That lucky old sun
TTITLE15=Mine all mine
EXTD=
EXTT0=
EXTT1=
EXTT2=
EXTT3=
EXTT4=
EXTT5=
EXTT6=
EXTT7=
EXTT8=
EXTT9=
EXTT10=
EXTT11=
EXTT12=
EXTT13=
EXTT14=
EXTT15=
PLAYORDER=
